HIERARCHY
ROOT Hips
{
	OFFSET 0.000000 0.000000 0.000000
	CHANNELS 6 Xposition Yposition Zposition Yrotation Xrotation Zrotation
	JOINT Chest
	{
		OFFSET 0.000000 -0.009281 11.569106
		CHANNELS 3 Yrotation Xrotation Zrotation
		JOINT Chest2
		{
			OFFSET -0.000000 0.016865 9.269641
			CHANNELS 3 Yrotation Xrotation Zrotation
			JOINT Chest3
			{
				OFFSET -0.000000 0.000001 8.374491
				CHANNELS 3 Yrotation Xrotation Zrotation
				JOINT Chest4
				{
					OFFSET -0.000000 0.000001 8.374493
					CHANNELS 3 Yrotation Xrotation Zrotation
					JOINT Neck
					{
						OFFSET -0.000000 0.000002 12.152554
						CHANNELS 3 Yrotation Xrotation Zrotation
						JOINT Head
						{
							OFFSET -0.000000 0.040101 7.802319
							CHANNELS 3 Yrotation Xrotation Zrotation
							End Site
							{
								OFFSET -0.000000 0.020947 14.853096
							}
						}
					}
					JOINT RightCollar
					{
						OFFSET 2.894404 0.000001 6.791374
						CHANNELS 3 Yrotation Xrotation Zrotation
						JOINT RightShoulder
						{
							OFFSET 13.574684 0.000001 0.000000
							CHANNELS 3 Yrotation Xrotation Zrotation
							JOINT RightElbow
							{
								OFFSET 23.923903 0.000002 0.000000
								CHANNELS 3 Yrotation Xrotation Zrotation
								JOINT RightWrist
								{
									OFFSET 19.846718 0.012767 0.000000
									CHANNELS 3 Yrotation Xrotation Zrotation
									End Site
									{
										OFFSET 14.973145 0.000001 0.000000
									}
								}
							}
						}
					}
					JOINT LeftCollar
					{
						OFFSET -2.894404 0.000001 6.791374
						CHANNELS 3 Yrotation Xrotation Zrotation
						JOINT LeftShoulder
						{
							OFFSET -13.574684 -0.000001 0.000000
							CHANNELS 3 Yrotation Xrotation Zrotation
							JOINT LeftElbow
							{
								OFFSET -23.923903 -0.000002 0.000000
								CHANNELS 3 Yrotation Xrotation Zrotation
								JOINT LeftWrist
								{
									OFFSET -19.846718 0.012763 0.000000
									CHANNELS 3 Yrotation Xrotation Zrotation
									End Site
									{
										OFFSET -14.973145 -0.000001 0.000000
									}
								}
							}
						}
					}
				}
			}
		}
	}
	JOINT RightHip
	{
		OFFSET 9.469263 0.004643 0.045487
		CHANNELS 3 Yrotation Xrotation Zrotation
		JOINT RightKnee
		{
			OFFSET 0.000000 0.002661 -40.478676
			CHANNELS 3 Yrotation Xrotation Zrotation
			JOINT RightAnkle
			{
				OFFSET 0.000000 0.049106 -35.224068
				CHANNELS 3 Yrotation Xrotation Zrotation
				JOINT RightToe
				{
					OFFSET -0.000001 12.539529 -6.151390
					CHANNELS 3 Yrotation Xrotation Zrotation
					End Site
					{
						OFFSET -0.000001 5.044994 -1.291870
					}
				}
			}
		}
	}
	JOINT LeftHip
	{
		OFFSET -9.469263 0.004641 0.045487
		CHANNELS 3 Yrotation Xrotation Zrotation
		JOINT LeftKnee
		{
			OFFSET 0.000000 0.002661 -40.478676
			CHANNELS 3 Yrotation Xrotation Zrotation
			JOINT LeftAnkle
			{
				OFFSET 0.000000 0.049106 -35.224068
				CHANNELS 3 Yrotation Xrotation Zrotation
				JOINT LeftToe
				{
					OFFSET -0.000001 12.539529 -6.151390
					CHANNELS 3 Yrotation Xrotation Zrotation
					End Site
					{
						OFFSET -0.000001 5.044994 -1.291870
					}
				}
			}
		}
	}
}
MOTION
Frames: 9
Frame Time: 0.016667
10.590865 7.161827 83.073914 -4.668059 -1.580166 -104.733438 -1.123236 -3.529800 2.989724 -0.474163 -1.576211 1.289371 -0.474163 -1.576211 1.289371 -0.352275 -1.183166 0.965745 3.168610 -23.216484 -3.664785 4.735612 -6.884358 -5.759701 10.058254 2.318809 -6.382288 57.377892 39.312646 17.696487 38.442354 28.011630 42.246561 27.417069 23.220715 -7.541852 -7.511153 -3.947043 -4.934692 -50.561042 34.953561 -14.137501 -44.107630 -6.110710 -56.507289 -28.531696 17.294398 -5.232230 -0.671447 -5.790329 -2.219907 2.234262 -4.179131 -10.809623 -1.022214 4.410636 1.361175 -0.110862 0.052855 0.011994 -0.545934 -6.969010 1.699215 0.453825 -1.394320 -0.905977 -0.446381 3.686135 -0.179532 0.057317 -0.050437 -0.001186 
10.581355 7.140251 83.072151 -4.624585 -1.614558 -105.091572 -1.146680 -3.497647 3.064245 -0.485620 -1.561796 1.326973 -0.485621 -1.561796 1.326976 -0.360803 -1.172409 0.993930 2.926414 -23.274949 -2.938643 4.492726 -7.003851 -4.517947 10.066434 2.237928 -6.369008 57.549835 39.036153 17.913018 38.656555 27.691800 42.426362 27.522281 23.197242 -7.426056 -7.541205 -3.810799 -4.999470 -50.575686 35.777549 -14.210007 -43.775966 -4.073532 -57.108707 -28.073840 18.497129 -6.078203 -0.629436 -5.722909 -2.036205 2.180806 -4.146230 -10.700969 -0.987035 4.338141 1.430163 -0.116864 0.046168 0.010295 -0.522015 -6.991810 1.908960 0.437766 -1.362433 -0.775173 -0.462021 3.720522 -0.166663 0.049456 -0.055605 -0.001416 
10.573213 7.120415 83.070328 -4.592585 -1.647124 -105.446762 -1.163929 -3.471720 3.133724 -0.494469 -1.549780 1.362674 -0.494470 -1.549780 1.362675 -0.367376 -1.163445 1.020690 2.701134 -23.326191 -2.280350 4.261465 -7.109888 -3.393797 10.086147 2.123320 -6.350195 57.796057 38.778566 18.160372 38.861816 27.355364 42.640113 27.593348 23.088534 -7.356215 -7.594452 -3.615634 -5.040129 -50.724847 36.498475 -14.338990 -43.351358 -1.891090 -57.584423 -27.552544 19.703294 -7.021838 -0.595495 -5.661905 -1.863961 2.130303 -4.126142 -10.578301 -0.953409 4.274035 1.498654 -0.119312 0.038323 0.008703 -0.507971 -7.022685 2.130609 0.429004 -1.337065 -0.629189 -0.481936 3.759694 -0.176084 0.043709 -0.059762 -0.002046 
10.564864 7.104055 83.069603 -4.576892 -1.676717 -105.792110 -1.174289 -3.444186 3.190613 -0.501092 -1.537848 1.392115 -0.501092 -1.537847 1.392115 -0.372295 -1.154535 1.042762 2.484872 -23.377245 -1.687975 4.028400 -7.215151 -2.385936 10.109943 1.991567 -6.316164 58.045891 38.499048 18.371911 39.058215 27.009105 42.843806 27.660960 22.942563 -7.244341 -7.637658 -3.535780 -5.040854 -51.127115 37.198153 -14.706053 -42.950801 0.463936 -57.936916 -26.892958 20.923012 -7.926916 -0.572285 -5.601227 -1.695896 2.087062 -4.138500 -10.441921 -0.926418 4.224194 1.549845 -0.116555 0.033098 0.007841 -0.505486 -7.061054 2.372775 0.426484 -1.322946 -0.503464 -0.502786 3.802055 -0.191184 0.039151 -0.061298 -0.003145 
10.554093 7.092346 83.069717 -4.573512 -1.704334 -106.123006 -1.181235 -3.418697 3.237636 -0.506506 -1.527326 1.416084 -0.506506 -1.527326 1.416085 -0.376320 -1.146676 1.060736 2.280341 -23.425920 -1.160174 3.798864 -7.315171 -1.491155 10.155653 1.838829 -6.259454 58.300084 38.237038 18.563230 39.251465 26.710406 43.018150 27.742990 22.839850 -7.142282 -7.728036 -3.461771 -5.033138 -51.640639 37.802204 -15.182882 -42.626073 2.915584 -58.209679 -25.922755 22.247319 -8.818592 -0.558786 -5.534991 -1.535844 2.052666 -4.184879 -10.296184 -0.908371 4.187602 1.575397 -0.107882 0.030687 0.006879 -0.508854 -7.101931 2.644028 0.423441 -1.318054 -0.405596 -0.522144 3.844332 -0.214598 0.036454 -0.060790 -0.003572 
10.542451 7.084578 83.069847 -4.586698 -1.730426 -106.430856 -1.186754 -3.393909 3.270002 -0.511261 -1.516468 1.433156 -0.511261 -1.516469 1.433154 -0.379868 -1.138559 1.073535 2.088700 -23.478000 -0.693243 3.576025 -7.420451 -0.702578 10.200101 1.633263 -6.199389 58.563476 37.960887 18.775364 39.450377 26.512402 43.154406 27.768136 22.791986 -7.012192 -7.868116 -3.379142 -5.048467 -52.209198 38.317430 -15.689701 -42.302449 5.350138 -58.401041 -24.491001 23.914683 -9.804018 -0.558859 -5.479470 -1.407328 2.032672 -4.246481 -10.133197 -0.901255 4.161683 1.594473 -0.095636 0.027211 0.005419 -0.518958 -7.151874 2.918996 0.422269 -1.318433 -0.335217 -0.541569 3.887631 -0.236744 0.035931 -0.061056 -0.003612 
10.529060 7.080946 83.069725 -4.609927 -1.756599 -106.704979 -1.195543 -3.383933 3.292079 -0.516675 -1.512220 1.444859 -0.516675 -1.512220 1.444860 -0.383910 -1.135395 1.082305 1.921004 -23.520900 -0.284223 3.380707 -7.507684 -0.011706 10.265264 1.479055 -6.124853 58.800033 37.674340 18.934451 39.590536 26.354544 43.247474 27.649477 22.785880 -6.799261 -8.003121 -3.277972 -5.107574 -52.847568 38.756218 -16.207166 -41.996340 7.628120 -58.534783 -22.299849 26.165710 -10.912628 -0.567217 -5.424651 -1.291431 2.027934 -4.330944 -9.977829 -0.905449 4.148331 1.606289 -0.079931 0.025067 0.003718 -0.526649 -7.202909 3.161151 0.413772 -1.324539 -0.287017 -0.553344 3.928970 -0.239631 0.035601 -0.061664 -0.002910 
10.512365 7.082144 83.069862 -4.641020 -1.779884 -106.934541 -1.198825 -3.378081 3.292997 -0.519303 -1.509817 1.446583 -0.519304 -1.509817 1.446586 -0.385883 -1.133601 1.083595 1.771324 -23.565066 0.072267 3.203725 -7.596288 0.589359 10.303530 1.373895 -6.077003 59.017650 37.354936 19.007286 39.722697 26.231765 43.323897 27.407536 22.855529 -6.564703 -8.153790 -3.213693 -5.201947 -53.570161 39.069409 -16.732613 -41.687889 9.688634 -58.640268 -19.226448 29.192208 -12.256643 -0.578644 -5.372947 -1.187430 2.026196 -4.427969 -9.840067 -0.913688 4.143641 1.600687 -0.062540 0.022787 0.002417 -0.537547 -7.248895 3.328563 0.406540 -1.338458 -0.224105 -0.560100 3.966508 -0.230903 0.033802 -0.062306 -0.002313 
10.494174 7.088896 83.070526 -4.679462 -1.797846 -107.106245 -1.198556 -3.375821 3.281278 -0.519961 -1.508617 1.442300 -0.519961 -1.508617 1.442299 -0.386389 -1.132699 1.080379 1.645829 -23.611308 0.367865 3.054077 -7.687577 1.087174 10.325332 1.297168 -6.071446 59.198725 37.003609 19.016988 39.882427 26.176198 43.388609 27.098699 22.951232 -6.298648 -8.285403 -3.303525 -5.283054 -54.492506 39.183221 -17.444278 -41.375582 11.542437 -58.702607 -15.256766 32.971195 -14.019425 -0.592981 -5.329316 -1.111241 2.022306 -4.529403 -9.724216 -0.922270 4.146232 1.594984 -0.043468 0.019628 0.002593 -0.554998 -7.285961 3.410052 0.402819 -1.363290 -0.132930 -0.559348 3.999040 -0.220420 0.028594 -0.061730 -0.003505 
